<?xml version="1.0" encoding="utf-8"?>
<!-- Generator: Adobe Illustrator 16.0.0, SVG Export Plug-In . SVG Version: 6.00 Build 0)  -->
<!DOCTYPE svg PUBLIC "-//W3C//DTD SVG 1.1//EN" "http://www.w3.org/Graphics/SVG/1.1/DTD/svg11.dtd">
<svg version="1.1" id="Layer_1" xmlns="http://www.w3.org/2000/svg" xmlns:xlink="http://www.w3.org/1999/xlink" x="0px" y="0px"
     width="122.29248px" height="37px" viewBox="0 0 122.29248 37" xml:space="preserve">
    <g fill="#D25033">
    <path d="M11.60938,0.01562H0.00488v7.12842h11.08545c4.68945,0,6.81055,1.79492,6.81055,4.99805
        c0,3.20508-2.11719,5.34521-6.80615,5.34521l-11.09521-0.00781l0.00537,18.4873h6.97461V24.61328h4.62988
        c8.0083,0,13.35352-5.26367,13.35352-12.29932C24.96289,5.2793,19.61768,0.01562,11.60938,0.01562z"/>
    <path d="M83.44482,30.64062c-3.95117,0-7.46094-2.89648-7.46094-7.35938c0-4.08398,3.17383-7.3623,7.12695-7.3623
        c2.44922,0,4.56641,1.08984,6.40625,3.7959l5.11914-3.74023c-3.45312-4.19775-7.45898-5.86768-11.52539-5.86768
        c-7.68359,0-13.47266,5.75342-13.47266,13.17432c0,7.90234,6.125,13.17188,13.80664,13.17188
        c4.06445,0,8.07422-1.66992,11.52734-5.86719l-5.00977-3.50977C88.06787,29.55078,85.896,30.64062,83.44482,30.64062z"/>
    <path d="M110.19678,10.25928c-2.86133,0-5.24023,1.1665-6.33594,2.59473V0h-6.79883v35.9668h6.79883V23.31641
        c0-4.68359,2.27344-6.63574,5.41992-6.63574c3.20312,0,4.71875,2.28809,4.71875,6.29199V35.9668h6.85938V21.24414
        C120.85889,14.95068,117.1167,10.25928,110.19678,10.25928z"/>
    <path d="M44.00928,24.61328c0,4.48047-2.00439,6.29102-5.05713,6.29102c-3.146,0-4.9585-1.86328-4.9585-6.29102V10.37354
        L27.021,10.375l-0.02295,15.21094c0,7.41406,4.55859,10.94336,11.65186,10.94336c2.36523,0,4.15576-0.67188,5.35938-2v1.45703
        h6.96631l0.00146-25.61279h-6.96777V24.61328L44.00928,24.61328z"/>
    <path d="M60.97461,11.9248v-1.55127h-6.96582v4.93604V35.9668h6.9834V22.61133c0-1.57812-0.10938-3.56055,0.66943-4.67871
        c1.17188-1.68115,3.19531-1.90234,4.94141-1.90234c0.78516,0,1.4375,0.10986,2.1582,0.33789
        c0.125,0.03906,0.24805,0.08789,0.37109,0.13721l0.79102-5.63086c-1.12891-0.27002-1.61523-0.63672-3.70703-0.63672
        C62.93701,10.23779,61.14844,11.65576,60.97461,11.9248z"/>
    </g>
</svg>