<?xml version="1.0" encoding="utf-8"?>
<!-- Generator: Adobe Illustrator 15.0.0, SVG Export Plug-In . SVG Version: 6.00 Build 0)  -->
<!DOCTYPE svg PUBLIC "-//W3C//DTD SVG 1.1//EN" "http://www.w3.org/Graphics/SVG/1.1/DTD/svg11.dtd">
<svg version="1.1" id="Layer_1" xmlns="http://www.w3.org/2000/svg" xmlns:xlink="http://www.w3.org/1999/xlink" x="0px" y="0px"
	 width="864px" height="627px" viewBox="0 0 864 627" enable-background="new 0 0 864 627" xml:space="preserve">
<path fill="#003057" d="M849.334,575.703h-7.368v-41.047h-0.226l-16.562,41.047H820.7l-16.099-41.047h-0.226v41.047h-7.369v-48.395
	h12.085l13.91,34.135l14.374-34.135h11.958V575.703z M788.166,534.656H772.29v41.047h-7.356v-41.047H749.06v-7.348h39.106V534.656z"
	/>
<polygon fill="#003057" points="743.391,190.009 743.391,28.265 743.391,20.588 735.712,20.588 510.309,20.588 502.645,20.588 
	502.645,28.265 502.645,190.009 "/>
<path fill="#003057" d="M743.391,417.05c-79.374-17.617-159.906-28.719-240.746-33.371v55.357c0,21.868,0,37.651-7.607,46.726
	c-8,9.53-26.479,13.783-59.92,13.783h-37.322c-33.44,0-51.915-4.253-59.912-13.783c-7.618-9.073-7.618-24.857-7.618-46.726V383.65
	c-80.833,4.574-161.358,15.649-240.732,33.223v56.564c-0.294,6.73-0.15,39.287,27.343,71.317
	c35.293,41.07,99.002,63.267,189.363,65.914h0.123h0.122h220.063h0.121h0.104l0.338-0.016
	c90.083-2.645,153.639-24.828,188.925-65.898c26.85-31.271,27.749-62.263,27.356-71.317V417.05z"/>
<polygon fill="#003057" points="330.261,190.009 330.261,28.265 330.261,20.588 322.601,20.588 97.211,20.588 89.53,20.588 
	89.53,28.265 89.53,190.009 "/>
<rect x="103.998" y="35.36" fill="#9D968D" width="211.828" height="154.694"/>
<rect x="517.088" y="35.36" fill="#9D968D" width="211.846" height="154.694"/>
<path fill="#9D968D" d="M728.934,413.947c-69.942-14.801-140.747-24.62-211.846-29.364v54.446c0,46.943,0,75.268-81.964,75.268
	h-37.335c-81.967,0-81.967-28.324-81.967-75.268v-54.488c-71.081,4.724-141.883,14.499-211.828,29.272v59.954
	c-0.178,3.221-1.056,32.341,23.746,61.247c32.518,37.861,92.639,58.361,178.745,60.888h220.063h0.155
	c85.915-2.541,145.953-23.026,178.468-60.888c24.227-28.219,24.043-55.962,23.764-61.168V413.947z"/>
<rect x="526.428" y="45.01" fill="#003057" width="193.15" height="145.051"/>
<path fill="#003057" d="M719.578,412.115c-63.828-13.116-128.353-22.022-193.15-26.795v53.709c0,47.386,0,84.924-91.304,84.924
	h-37.333c-91.304,0-91.304-37.538-91.304-84.924v-53.871c-64.794,4.682-129.327,13.518-193.171,26.535v62.426
	c0,0-8.769,106.175,193.171,112.153h219.94c201.944-5.979,193.15-112.153,193.15-112.153V412.115z"/>
<rect x="113.31" y="45.01" fill="#003057" width="193.171" height="145.051"/>
<path fill="#9D968D" d="M359,249.806c-16.686,32.339-33.458,65.045-50.291,98.607c0.136-32.662,0.281-65.341,0.425-98.003
	C325.755,250.129,342.378,249.936,359,249.806 M429.556,292.675c-9.197-0.095-18.395-0.137-27.595-0.137
	c4.766-10.517,9.537-21.016,14.295-31.521C420.674,271.551,425.11,282.096,429.556,292.675 M529.031,250.869
	c0.184,33.395,0.366,66.776,0.557,100.161c-16.956-34.62-33.878-68.138-50.706-101.067
	C495.6,250.188,512.315,250.497,529.031,250.869 M118.752,270.677c-11.752-0.252-23.689-0.512-31.198-0.656
	c0.021-5.225,0.041-10.443,0.073-15.657c10.404-0.54,20.813-1.057,31.223-1.555C118.823,258.761,118.787,264.719,118.752,270.677
	 M117.746,343.479c-9.443,1.264-18.879,2.604-28.308,4.006c0.034-6.286,0.056-12.574,0.083-18.855
	c9.437-0.492,18.872-0.955,28.315-1.361C117.801,332.671,117.774,338.075,117.746,343.479 M709.605,343.352
	c-0.035-6.94-0.069-13.881-0.113-20.815c27.511,3.313,54.945,7.109,82.294,11.369c-0.013-17.487-0.013-34.987-0.042-52.473
	c-27.454-2.498-54.95-4.727-82.504-6.681c-0.028-5.878-0.07-11.773-0.084-17.643c29.293,1.53,58.559,3.298,87.782,5.301v-2.463
	c0-17.608-0.016-35.206-0.016-52.807v-0.522c-243.067,0.077-500.337,0.083-743.396,0.242c-19.447-0.158-35.823,16.215-35.815,35.732
	v61.236c0,10.422,8.792,21.032,19.31,25.215c-6.253,0.92-12.514,1.875-18.767,2.829v45.385c0,15.876,15.896,30.957,34.539,26.451
	c32.381-7.509,64.944-13.965,97.635-19.362c16.387-2.892,41.697-19.798,41.809-36.064c0.124-17.834,0.247-35.67,0.369-53.5
	c-0.137-12.225-11.21-18.822-24.479-21.647c7.37-0.417,14.742-0.835,22.107-1.221c0.035-6.088,0.077-12.166,0.123-18.248
	c16.313-0.624,32.62-1.178,48.939-1.652L238.519,372.4c23.334-2.549,46.711-4.561,70.113-6.05
	c20.717-1.255,41.453-2.092,62.19-2.504c4.313-9.75,8.619-19.455,12.906-29.134c21.202-0.203,42.402-0.056,63.594,0.441
	c4.407,9.798,8.821,19.609,13.229,29.47c46.487,1.768,92.919,5.613,139.153,11.559c-0.274-41.084-0.563-82.188-0.835-123.292
	c9.13,0.323,32.484,0.667,41.637,1.035c0.281,42.017,0.562,84.031,0.856,126.046c53.505,7.861,106.702,18.551,159.365,32.06v-53.59
	C770.472,352.729,740.092,347.689,709.605,343.352"/>
<path fill="#003057" d="M190.66,213.948c-0.071,10.867-0.151,21.724-0.221,32.591c19.134-0.618,38.272-1.152,57.424-1.597
	c-0.252,39.907-0.501,79.827-0.754,119.745c17.644-1.712,35.308-3.123,52.979-4.24l0.547-116.54
	c20.65-0.316,41.297-0.537,61.952-0.667c5.038-9.99,10.056-19.959,15.07-29.911C315.316,213.372,252.972,213.583,190.66,213.948"/>
<path fill="#003057" d="M441.3,299.343c-8.158-19.454-16.292-38.792-24.397-58.109h-0.791
	c-8.695,19.271-17.421,38.525-26.166,57.843C407.063,299.006,424.184,299.089,441.3,299.343 M387.127,213.133
	c21.231-0.014,42.446,0,63.667,0.028c24.923,48.228,50.012,97.214,75.199,148.606c-19.757-1.516-39.534-2.667-59.338-3.475
	c-4.408-9.88-8.815-19.72-13.222-29.516c-25.279-0.654-50.575-0.821-75.857-0.513c-4.296,9.698-8.601,19.425-12.906,29.173
	c-17.521,0.416-35.034,1.103-52.541,2.078C337.283,309.368,362.306,261.127,387.127,213.133"/>
<path fill="#003057" d="M26.561,375.523c0-12.197,0.013-24.409,0.021-36.614c18.159-2.947,36.363-5.67,54.596-8.176
	c-0.028,6.892-0.067,13.785-0.087,20.675c-0.014,2.712,2.737,4.864,5.986,4.331c11.162-1.824,22.335-3.551,33.518-5.187
	c1.962-0.281,5.478-2.842,5.5-5.621c0.042-8.499,0.091-16.999,0.15-25.497c-0.044-0.203-75.773,3.123-77.096,3.391
	c-10.162,0.708-23.121-10.527-23.106-19.998c0.01-20.195,0.025-40.389,0.038-60.59c0-14.544,12.548-27.287,27.431-27.339
	c34.026-0.322,68.071-0.617,102.111-0.839c15.566-0.052,26.532,11.18,26.461,22.135c-0.074,9.707-0.137,19.401-0.204,29.111
	c-18.26,0.898-36.497,1.897-54.722,3.018c0.027-6.007,0.063-12.015,0.102-18.016c0.021-2.652-3.482-5.175-6.885-5.038
	c-11.868,0.458-23.739,0.958-35.595,1.479c-3.285,0.145-5.506,3.558-5.513,5.576c-0.028,8.46-0.063,16.917-0.102,25.377
	c-0.014-0.045,68.022,0.818,73.763,1.134c10.211,0.145,31.139,2.906,31.283,16.647c-0.124,17.92-0.246,35.855-0.369,53.764
	c-0.077,11.453-20.43,25.68-33.364,27.861c-32.7,5.166-65.268,11.369-97.666,18.57C39,398.845,26.561,386.863,26.561,375.523"/>
<path fill="#003057" d="M701.143,349.78c-0.063-11.951-0.141-23.909-0.197-35.868c27.524,3.002,54.994,6.456,82.378,10.344
	c-0.017-11.753-0.029-23.485-0.043-35.238c-27.453-2.729-54.964-5.144-82.518-7.25c-0.07-10.903-0.111-21.813-0.183-32.721
	c29.321,1.266,58.62,2.722,87.865,4.389v-2.449c0-11.822-0.013-23.637-0.013-35.473v-0.501
	c-104.528-1.062-223.328-1.674-327.938-1.838c5.032,10.008,10.071,20.057,15.116,30.153c20.647,0.234,41.302,0.561,61.942,0.979
	c0.224,39.479,0.447,78.973,0.681,118.457c17.649,1.487,35.272,3.284,52.865,5.348c-0.266-40.838-0.546-81.666-0.821-122.514
	c14.844,0.425,43.87,0.898,58.692,1.425c0.288,42.326,0.574,84.637,0.856,126.977c47.807,6.99,95.34,16.142,142.492,27.448
	c-0.025-12.043-0.025-24.086-0.025-36.137C762.031,359.416,731.636,354.238,701.143,349.78"/>
</svg>
